<?xml version="1.0" encoding="utf-8"?>
<!-- Generator: Adobe Illustrator 19.2.1, SVG Export Plug-In . SVG Version: 6.00 Build 0)  -->
<svg version="1.2" baseProfile="tiny" id="Layer_1" xmlns="http://www.w3.org/2000/svg" xmlns:xlink="http://www.w3.org/1999/xlink"
	 x="0px" y="0px" viewBox="0 0 150 36" xml:space="preserve">
<g display="none">
	<path display="inline" fill="#78D315" d="M51.3-29.2L350.4-137C244-105.7,138.6-69.5,34.1-28.5l45.6,5.8L51.3-29.2z"/>
	<path display="inline" fill="#78D315" d="M350.6-137L0,31.1l88.5-16L141.6,36c75.2-55.4,144.9-113.1,209.3-173.2v-0.1l-0.2,0.1
		C350.7-137.2,350.6-137.1,350.6-137z"/>
</g>
<g>
	<g>
		<g>
			<path fill="#5CD044" d="M124.7,18.9c-0.1,0.1-0.2,0.4-0.2,0.6V21h2.4v-2.2h-1.5C125,18.7,124.8,18.8,124.7,18.9z"/>
			<path fill="#5CD044" d="M148.9,11.2c-0.8-1.1-2.1-1.6-3.9-1.6c-1.7,0-3,0.5-3.8,1.5c-0.8,1-1.3,2.4-1.3,4.3s0.4,3.4,1.3,4.4
				c0.8,1,2.1,1.5,3.8,1.6c1.4,0,2.5-0.3,3.3-1c0.8-0.6,1.3-1.6,1.7-2.8h-2.1c-0.2,0-0.4,0-0.5,0.1c-0.2,0.1-0.3,0.2-0.4,0.3
				c-0.3,0.3-0.6,0.5-0.9,0.6c-0.3,0.1-0.6,0.2-0.9,0.2c-0.7,0-1.2-0.2-1.6-0.7c-0.4-0.4-0.6-1.1-0.6-1.9h7.2
				C150.1,13.9,149.7,12.3,148.9,11.2z M142.8,14.1c0.1-0.7,0.3-1.3,0.7-1.7c0.4-0.4,0.8-0.6,1.4-0.6s1.1,0.2,1.4,0.6
				c0.4,0.4,0.6,1,0.6,1.7H142.8z"/>
			<path fill="#5CD044" d="M133.3,9.6c-1.7,0-3,0.5-3.9,1.5c-0.9,1-1.3,2.4-1.3,4.2c0,2,0.4,3.4,1.1,4.4c0.7,1,1.9,1.5,3.4,1.5
				c0.7,0,1.3-0.1,1.9-0.4c0.5-0.3,1-0.7,1.3-1.2v1.2c0,0.9-0.2,1.5-0.6,2c-0.4,0.4-0.9,0.7-1.7,0.7c-0.6,0-1-0.1-1.4-0.3
				c-0.3-0.2-0.5-0.5-0.6-0.9h-3.1c0.3,1.2,0.9,2.1,1.7,2.7c0.8,0.6,1.8,0.9,3.1,0.9c1.8,0,3.1-0.4,4-1.1c0.9-0.7,1.3-1.8,1.3-3.2
				v-6.7c0-1.7-0.4-3-1.3-3.8C136.4,10,135.1,9.6,133.3,9.6z M133.4,18.7c-0.8,0-1.3-0.3-1.7-0.8s-0.6-1.4-0.6-2.5
				c0-1.1,0.2-2,0.6-2.6c0.4-0.6,1-0.9,1.8-0.9c0.8,0,1.4,0.3,1.8,0.9c0.4,0.6,0.6,1.4,0.6,2.6C135.7,17.6,134.9,18.7,133.4,18.7z"
				/>
		</g>
		<g>
			<path fill="#333333" d="M122.9,7.8c0-0.5-0.1-0.8-0.3-1c-0.2-0.2-0.6-0.4-1-0.4H120v2.2h2.8L122.9,7.8L122.9,7.8z"/>
			<path fill="#333333" d="M113.6,21.1c1.7,0,3.1-0.5,3.9-1.5c0.9-1,1.3-2.4,1.3-4.2c0-1.9-0.4-3.4-1.1-4.4c-0.7-1-1.9-1.5-3.4-1.6
				c-0.7,0-1.3,0.1-1.8,0.4c-0.5,0.3-1,0.7-1.3,1.3V7.9c0-0.5-0.1-0.8-0.4-1.1c-0.2-0.2-0.6-0.4-1.1-0.4h-1.4v9.6
				c0,1.7,0.4,3,1.3,3.8C110.5,20.7,111.8,21.2,113.6,21.1z M111.8,12.9c0.4-0.5,1-0.8,1.8-0.8c0.8,0,1.3,0.3,1.7,0.8
				c0.4,0.5,0.6,1.4,0.6,2.5c0,1.1-0.2,2-0.6,2.6c-0.4,0.6-1,0.9-1.8,0.9c-0.8,0-1.4-0.3-1.8-0.9c-0.4-0.6-0.6-1.4-0.6-2.6
				C111.2,14.2,111.4,13.4,111.8,12.9z"/>
			<path fill="#333333" d="M122.9,11c0-0.5-0.1-0.8-0.4-1c-0.2-0.2-0.6-0.4-1-0.4H120V21h2.8V11z"/>
			<path fill="#333333" d="M80.3,20.2c0.5,0.3,1,0.6,1.5,0.7c0.5,0.2,1.1,0.2,1.7,0.2c0.6,0,1.2-0.1,1.7-0.2
				c0.6-0.1,1.1-0.4,1.6-0.6c0.5-0.3,0.9-0.8,1.1-1.4c0.2-0.6,0.4-1.5,0.4-2.4V9.7h-1.4c-0.5,0-0.8,0.1-1,0.4
				c-0.2,0.2-0.3,0.6-0.3,1v6c0,0.6-0.2,1.1-0.5,1.4c-0.3,0.3-0.8,0.5-1.4,0.5s-1.1-0.2-1.4-0.5c-0.3-0.3-0.5-0.8-0.5-1.4V9.7h-2.8
				v6.8c0,1,0.1,1.7,0.4,2.4C79.4,19.5,79.8,19.9,80.3,20.2z"/>
			<path fill="#333333" d="M71.5,21h2.9V9.1h4.3V6.5h-10c-0.4,0-0.8,0.2-1.1,0.5S67.3,7.6,67.3,8v1h4.3V21L71.5,21z"/>
			<path fill="#333333" d="M92.3,15.1c0-0.8,0.2-1.4,0.6-1.9c0.4-0.4,1-0.6,1.8-0.6h0.9v-3h-0.4c-1.9,0-3.3,0.5-4.3,1.4
				c-0.9,0.9-1.4,2.3-1.5,4.1V21h2.8V15.1z"/>
			<path fill="#333333" d="M101.9,21.2c1.4,0,2.5-0.3,3.3-1c0.8-0.6,1.3-1.6,1.7-2.8h-2.1c-0.2,0-0.4,0-0.5,0.1
				c-0.2,0.1-0.3,0.2-0.4,0.3c-0.3,0.3-0.6,0.5-0.9,0.6c-0.3,0.1-0.6,0.2-0.9,0.2c-0.7,0-1.2-0.2-1.6-0.7c-0.4-0.4-0.6-1.1-0.6-1.9
				h7.2c0.1-2.2-0.2-3.9-1.1-5c-0.8-1.1-2.1-1.6-3.9-1.6c-1.7,0-3,0.5-3.8,1.5s-1.3,2.4-1.3,4.3s0.4,3.4,1.3,4.4
				C99,20.6,100.2,21.2,101.9,21.2z M100.5,12.4c0.4-0.4,0.8-0.6,1.4-0.6s1.1,0.2,1.4,0.6c0.4,0.4,0.6,1,0.6,1.7h-4.2
				C99.9,13.3,100.1,12.8,100.5,12.4z"/>
		</g>
	</g>
	<g>
		<path fill="#333333" d="M70.5,28.4l0.1-0.9h-0.8l0.1,0.9c-0.6,0.1-1.1,0.3-1.5,0.8c-0.4,0.5-0.6,1.2-0.6,2.1
			c0,0.9,0.2,1.6,0.6,2.2c0.4,0.5,1,0.8,1.8,0.8c0.8,0,1.4-0.3,1.8-0.8c0.4-0.5,0.6-1.2,0.6-2.2c0-0.9-0.2-1.6-0.6-2.1
			C71.6,28.8,71.1,28.5,70.5,28.4z M71.3,33c-0.3,0.4-0.6,0.6-1.1,0.6S69.3,33.4,69,33c-0.3-0.4-0.4-0.9-0.4-1.6
			c0-0.7,0.1-1.2,0.4-1.6c0.2-0.4,0.5-0.6,0.8-0.6l-0.1,2.4h0.9l-0.1-2.4c0.3,0,0.6,0.3,0.8,0.6c0.2,0.4,0.4,0.9,0.4,1.6
			C71.7,32.1,71.5,32.6,71.3,33z"/>
		<path fill="#333333" d="M66.7,29.4c-0.3-0.2-0.5-0.7-0.5-1.3h-0.8c0,0.7,0.2,1.2,0.5,1.5c0.3,0.3,0.5,0.6,0.5,0.9
			c0,0.5-0.1,0.9-0.3,1.1c-0.2,0.2-0.4,0.4-0.7,0.4c-0.2,0-0.5-0.1-0.7-0.4c-0.2-0.2-0.3-0.6-0.3-1.1v-3.6h-0.8v3.6
			c0,0.4,0.1,0.8,0.2,1.2c0.2,0.3,0.4,0.6,0.7,0.8c0.3,0.2,0.6,0.3,0.9,0.3s0.6-0.1,0.9-0.3c0.3-0.2,0.5-0.5,0.7-0.8
			c0.2-0.3,0.2-0.7,0.2-1.2C67.1,30,67,29.6,66.7,29.4z"/>
		<path fill="#333333" d="M57.3,28.6c-0.3-0.2-0.6-0.3-0.9-0.3c-0.5,0-0.9,0.2-1.1,0.7c-0.3-0.5-0.6-0.7-1.1-0.7
			c-0.2,0-0.5,0.1-0.7,0.2c0.4-0.4,0.9-0.6,1.4-0.8c0.6-0.2,1-0.2,1.4-0.2v-0.7c-1.2,0-2.2,0.3-2.9,0.9c-0.8,0.6-1.1,1.5-1.1,2.7
			c0,0.7,0.4,1.4,1.2,2.2h1.1c-0.9-0.7-1.4-1.5-1.4-2.2c0-0.5,0.1-0.9,0.3-1.1c0.2-0.2,0.4-0.3,0.7-0.3c0.4,0,0.6,0.3,0.6,0.9v1.1
			h0.9v-1.1c0-0.6,0.2-0.9,0.6-0.9c0.3,0,0.5,0.1,0.7,0.3c0.2,0.2,0.3,0.6,0.3,1.1c0,0.7-0.5,1.4-1.4,2.2H57
			c0.8-0.7,1.2-1.5,1.2-2.2c0-0.4-0.1-0.8-0.2-1.1C57.8,29,57.6,28.8,57.3,28.6z"/>
		<path fill="#333333" d="M51.2,28.6c-0.3-0.2-0.6-0.3-0.9-0.3c-0.3,0-0.6,0.2-0.8,0.5c-0.2-0.3-0.4-0.4-0.7-0.4h-0.4
			c-0.1,0-0.3,0-0.5-0.2l-0.2,0.6c0.2,0.2,0.5,0.2,0.7,0.2h0.4c0.1,0,0.1,0,0.2,0.1c0.1,0.1,0.1,0.1,0.1,0.2v1.2h0.8v-1.2
			c0-0.1,0-0.2,0.1-0.2c0.1-0.1,0.2-0.1,0.3-0.1c0.1,0,0.2,0,0.3,0.1c0.1,0.1,0.1,0.2,0.1,0.3V32c0,0.5,0,0.8-0.1,0.9
			c0,0.2-0.2,0.3-0.3,0.5c-0.2,0.1-0.4,0.2-0.6,0.2c-0.2,0-0.5-0.1-0.7-0.3c-0.2-0.2-0.3-0.4-0.3-0.6c0-0.4,0.1-0.8,0.4-1.2h-0.8
			c-0.2,0.4-0.4,0.8-0.4,1c0,0.4,0.1,0.7,0.2,1c0.1,0.3,0.3,0.5,0.6,0.7c0.3,0.2,0.6,0.2,1,0.2c0.4,0,0.7-0.1,1-0.2
			c0.3-0.2,0.5-0.4,0.6-0.7s0.2-0.7,0.2-1.4v-2.6C51.6,29.1,51.5,28.9,51.2,28.6z"/>
		<path fill="#333333" d="M45.2,28.4l0.1-0.9h-0.8l0.1,0.9c-0.6,0.1-1.1,0.3-1.5,0.8s-0.6,1.2-0.6,2.1c0,0.9,0.2,1.6,0.6,2.2
			c0.4,0.5,1,0.8,1.8,0.8c0.7,0,1.4-0.3,1.8-0.8c0.4-0.5,0.6-1.2,0.6-2.2c0-0.9-0.2-1.6-0.6-2.1C46.3,28.8,45.8,28.5,45.2,28.4z
			 M46,33c-0.3,0.4-0.6,0.6-1.1,0.6S44,33.4,43.7,33c-0.3-0.4-0.4-0.9-0.4-1.6c0-0.7,0.1-1.2,0.4-1.6c0.2-0.4,0.5-0.6,0.8-0.6
			l-0.1,2.4h0.9l-0.1-2.4c0.3,0,0.6,0.3,0.8,0.6c0.2,0.4,0.4,0.9,0.4,1.6C46.4,32.1,46.3,32.6,46,33z"/>
		<path fill="#333333" d="M76.5,28.6c-0.3-0.2-0.6-0.3-0.9-0.3s-0.6,0.2-0.8,0.5c-0.2-0.3-0.4-0.4-0.8-0.4h-0.4
			c-0.1,0-0.3,0-0.5-0.2l-0.2,0.6c0.2,0.2,0.5,0.2,0.7,0.2h0.4c0.1,0,0.1,0,0.2,0.1c0.1,0.1,0.1,0.1,0.1,0.2v1.2h0.8v-1.2
			c0-0.1,0-0.2,0.1-0.2c0.1-0.1,0.2-0.1,0.3-0.1c0.1,0,0.2,0,0.3,0.1c0.1,0.1,0.1,0.2,0.1,0.3V32c0,0.5,0,0.8-0.1,0.9
			c-0.1,0.2-0.2,0.3-0.3,0.5c-0.2,0.1-0.4,0.2-0.6,0.2s-0.5-0.1-0.7-0.3C74.1,33.1,74,33,74,32.7c0-0.4,0.1-0.8,0.4-1.2h-0.9
			c-0.2,0.4-0.4,0.8-0.4,1c0,0.4,0.1,0.7,0.2,1c0.1,0.3,0.3,0.5,0.6,0.7c0.3,0.2,0.6,0.2,1,0.2c0.4,0,0.7-0.1,1-0.2s0.5-0.4,0.6-0.7
			s0.2-0.7,0.2-1.4v-2.6C76.9,29.1,76.8,28.9,76.5,28.6z"/>
		<path fill="#333333" d="M61.8,28.6c-0.3-0.2-0.6-0.3-1-0.3c-0.4,0-0.7,0.1-1,0.3c-0.3,0.2-0.5,0.5-0.6,0.8c-0.1,0.3-0.2,0.7-0.2,1
			c0,0.5,0.2,1.3,0.7,2.3h0.9c-0.5-0.9-0.8-1.6-0.8-2.3c0-0.4,0.1-0.8,0.3-1c0.2-0.2,0.4-0.4,0.7-0.4c0.3,0,0.5,0.1,0.7,0.4
			c0.2,0.2,0.3,0.6,0.3,1c0,0.6-0.2,1.4-0.8,2.3h0.9c0.5-1,0.7-1.7,0.7-2.3c0-0.3-0.1-0.6-0.2-1C62.3,29,62,28.8,61.8,28.6z"/>
		<path fill="#333333" d="M89,28.6c-0.3-0.2-0.6-0.3-1-0.3s-0.7,0.1-1,0.3c-0.3,0.2-0.5,0.5-0.6,0.8s-0.2,0.7-0.2,1
			c0,0.5,0.2,1.3,0.7,2.3h0.9C87.3,31.8,87,31,87,30.4c0-0.4,0.1-0.8,0.3-1c0.2-0.2,0.4-0.4,0.7-0.4c0.3,0,0.5,0.1,0.7,0.4
			c0.2,0.2,0.3,0.6,0.3,1c0,0.6-0.2,1.4-0.8,2.3H89c0.5-1,0.7-1.7,0.7-2.3c0-0.3-0.1-0.6-0.2-1C89.5,29,89.3,28.8,89,28.6z"/>
		<path fill="#333333" d="M118.5,29.2c-0.6-0.4-0.9-0.8-0.9-1.3h-0.8c0,0.6,0.3,1.1,0.9,1.5c0.6,0.4,0.9,0.9,0.9,1.5
			c0,0.5-0.2,0.7-0.4,0.9c-0.2,0.2-0.4,0.2-0.6,0.2c-0.2,0-0.5-0.1-0.6-0.3c-0.2-0.2-0.3-0.5-0.3-1c0-0.2,0.1-0.5,0.3-0.9l-0.7-0.3
			c-0.3,0.5-0.5,0.9-0.5,1.2c0,0.5,0.2,1,0.5,1.4c0.4,0.4,0.8,0.6,1.3,0.6c0.6,0,1.1-0.2,1.4-0.6c0.3-0.4,0.5-0.8,0.5-1.2
			C119.4,30.2,119.1,29.6,118.5,29.2z"/>
		<path fill="#333333" d="M126.9,28.6c-0.3-0.2-0.6-0.3-0.9-0.3c-0.5,0-0.9,0.2-1.1,0.6c-0.2-0.4-0.6-0.6-1.1-0.6
			c-0.5,0-0.8,0.2-1,0.6c-0.2-0.4-0.6-0.6-1.1-0.6c-0.3,0-0.6,0.1-0.9,0.3c-0.3,0.2-0.5,0.5-0.6,0.7c-0.1,0.3-0.2,0.6-0.2,1
			c0,1,0.5,1.7,1.4,2.3c-0.3,0-0.6,0-0.9,0.1v0.8c0.8-0.2,1.6-0.2,2.3-0.2c0.6,0,1.1,0.1,1.5,0.2c0.4,0.2,0.7,0.4,0.7,0.7h1.1
			c0-0.5-0.4-0.8-1-1.2c-0.6-0.3-1.4-0.5-2.4-0.6c-1.1-0.6-1.7-1.3-1.7-2.2c0-0.5,0.1-0.8,0.3-1c0.2-0.2,0.4-0.3,0.6-0.3
			c0.4,0,0.6,0.3,0.6,0.9v1.2h0.9v-1.2c0-0.6,0.2-0.9,0.6-0.9c0.4,0,0.6,0.3,0.6,0.9v1.2h0.9v-1.2c0-0.6,0.2-0.9,0.6-0.9
			c0.2,0,0.4,0.1,0.6,0.3c0.2,0.2,0.3,0.5,0.3,1c0,0.6-0.4,1.2-1.2,1.9h1.2c0.6-0.7,0.9-1.3,0.9-1.9c0-0.4-0.1-0.7-0.2-1
			C127.4,29,127.2,28.8,126.9,28.6z"/>
		<path fill="#333333" d="M131.4,28.6c-0.3-0.2-0.6-0.3-1-0.3s-0.7,0.1-1,0.3c-0.3,0.2-0.5,0.5-0.6,0.8c-0.1,0.3-0.2,0.7-0.2,1
			c0,0.5,0.2,1.3,0.7,2.3h0.9c-0.5-0.9-0.8-1.6-0.8-2.3c0-0.4,0.1-0.8,0.3-1c0.2-0.2,0.4-0.4,0.7-0.4c0.3,0,0.5,0.1,0.7,0.4
			c0.2,0.2,0.3,0.6,0.3,1c0,0.6-0.2,1.4-0.8,2.3h0.9c0.5-1,0.7-1.7,0.7-2.3c0-0.3-0.1-0.6-0.2-1C131.9,29,131.7,28.8,131.4,28.6z"/>
		<path fill="#333333" d="M84.5,28.6c-0.3-0.2-0.6-0.3-0.9-0.3c-0.5,0-0.9,0.2-1.1,0.6c-0.2-0.4-0.6-0.6-1-0.6c-0.5,0-0.8,0.2-1,0.6
			c-0.2-0.4-0.6-0.6-1.1-0.6c-0.3,0-0.6,0.1-0.9,0.3c-0.3,0.2-0.5,0.5-0.6,0.7c-0.1,0.3-0.2,0.6-0.2,1c0,1,0.5,1.7,1.4,2.3
			c-0.3,0-0.6,0-0.9,0.1v0.8c0.8-0.2,1.6-0.2,2.3-0.2c0.6,0,1.1,0.1,1.5,0.2c0.4,0.2,0.7,0.4,0.7,0.7h1.1c0-0.5-0.4-0.8-1-1.2
			c-0.6-0.3-1.4-0.5-2.4-0.6c-1.1-0.6-1.7-1.3-1.7-2.2c0-0.5,0.1-0.8,0.3-1c0.2-0.2,0.4-0.3,0.6-0.3c0.4,0,0.6,0.3,0.6,0.9v1.2h0.9
			v-1.2c0-0.6,0.2-0.9,0.6-0.9c0.4,0,0.6,0.3,0.6,0.9v1.2h0.9v-1.2c0-0.6,0.2-0.9,0.6-0.9c0.2,0,0.4,0.1,0.6,0.3
			c0.2,0.2,0.3,0.5,0.3,1c0,0.6-0.4,1.2-1.2,1.9h1.2c0.6-0.7,0.9-1.3,0.9-1.9c0-0.4-0.1-0.7-0.2-1C85,29,84.8,28.8,84.5,28.6z"/>
		<path fill="#333333" d="M112.9,28.4l0.1-0.9h-0.8l0.1,0.9c-0.6,0.1-1.1,0.3-1.5,0.8c-0.4,0.5-0.6,1.2-0.6,2.1
			c0,0.9,0.2,1.6,0.6,2.2c0.4,0.5,1,0.8,1.8,0.8c0.8,0,1.4-0.3,1.8-0.8c0.4-0.5,0.6-1.2,0.6-2.2c0-0.9-0.2-1.6-0.6-2.1
			C114,28.8,113.6,28.5,112.9,28.4z M113.8,33c-0.3,0.4-0.6,0.6-1.1,0.6c-0.5,0-0.9-0.2-1.1-0.6c-0.3-0.4-0.4-0.9-0.4-1.6
			c0-0.7,0.1-1.2,0.4-1.6c0.2-0.4,0.5-0.6,0.8-0.6l-0.1,2.4h0.9l-0.1-2.4c0.3,0,0.6,0.3,0.8,0.6c0.2,0.4,0.4,0.9,0.4,1.6
			C114.1,32.1,114,32.6,113.8,33z"/>
		<path fill="#333333" d="M108.7,28.6c-0.3-0.2-0.6-0.3-1-0.3c-0.5,0-0.9,0.2-1.1,0.7c-0.3-0.5-0.6-0.7-1.1-0.7
			c-0.2,0-0.5,0.1-0.7,0.2c0.4-0.4,0.9-0.6,1.4-0.8c0.6-0.2,1-0.2,1.4-0.2v-0.5c-0.5,0-1.1,0-1.6,0c-0.5,0.2-0.9,0.4-1.3,0.7
			c-0.8,0.6-1.1,1.5-1.1,2.7c0,0.7,0.4,1.4,1.2,2.2h1.1c-0.9-0.7-1.4-1.5-1.4-2.2c0-0.5,0.1-0.9,0.3-1.1s0.4-0.3,0.7-0.3
			c0.4,0,0.6,0.3,0.6,0.9V31h0.9v-1.1c0-0.6,0.2-0.9,0.6-0.9c0.3,0,0.5,0.1,0.7,0.3c0.2,0.2,0.3,0.6,0.3,1.1c0,0.7-0.5,1.4-1.4,2.2
			h1.1c0.8-0.7,1.2-1.5,1.2-2.2c0-0.4-0.1-0.8-0.2-1.1C109.2,29,109,28.8,108.7,28.6z"/>
		<path fill="#333333" d="M95.7,29.3c0.4-0.2,0.6-0.6,0.6-1.1c0-0.5-0.3-0.7-0.8-0.9c-0.6-0.1-0.8-0.3-0.8-0.4v-0.1h-1
			c0,0.5,0.3,0.8,0.9,0.9c0.6,0.1,0.9,0.3,0.9,0.6c0,0.2,0,0.3-0.2,0.4c-0.1,0.1-0.2,0.1-0.5,0.1H94v0.7h0.5c0.3,0,0.5,0.1,0.7,0.3
			c0.2,0.2,0.3,0.5,0.3,0.8c0,0.5-0.1,0.8-0.3,1C95,31.9,94.8,32,94.5,32c-0.2,0-0.5-0.1-0.7-0.3s-0.3-0.6-0.3-1
			c0-0.2,0-0.5,0.1-0.9h-0.8c-0.1,0.3-0.2,0.6-0.2,0.9c0,0.4,0.1,0.8,0.2,1.1c0.2,0.3,0.4,0.6,0.7,0.7c0.3,0.2,0.6,0.3,0.9,0.3
			c0.3,0,0.6-0.1,0.9-0.3c0.3-0.2,0.5-0.4,0.7-0.7c0.2-0.3,0.2-0.7,0.2-1.1c0-0.2-0.1-0.5-0.2-0.8C96.1,29.6,95.9,29.4,95.7,29.3z"
			/>
		<path fill="#333333" d="M102.2,28.6c-0.3-0.2-0.6-0.3-1-0.3c-0.5,0-0.9,0.2-1.1,0.6c-0.3-0.4-0.6-0.6-1.1-0.6
			c-0.4,0-0.7,0.1-1,0.3c-0.3,0.2-0.5,0.5-0.6,0.8s-0.2,0.7-0.2,1.1c0,0.7,0.4,1.4,1.2,2.2h1.1c-0.9-0.7-1.4-1.5-1.4-2.2
			c0-0.5,0.1-0.9,0.3-1.1c0.2-0.2,0.4-0.4,0.7-0.4c0.4,0,0.6,0.3,0.6,0.9V31h0.9v-1.1c0-0.6,0.2-0.9,0.6-0.9c0.3,0,0.5,0.1,0.7,0.4
			c0.2,0.2,0.3,0.6,0.3,1.1c0,0.7-0.5,1.4-1.3,2.2h1c0.8-0.7,1.2-1.5,1.2-2.2c0-0.4-0.1-0.8-0.2-1.1C102.6,29,102.4,28.8,102.2,28.6
			z"/>
	</g>
	<g>
		<polygon fill="#5CD044" points="0,35 18.3,31.7 29.2,36 72.4,0 		"/>
		<polygon fill="#5CD044" points="16.1,24.8 10.1,22.7 72.4,0 3.4,22.7 		"/>
	</g>
</g>
</svg>
